<?xml version="1.0" encoding="UTF-8"?>
<svg width="20px" height="20px" viewBox="0 0 20 20" version="1.1" xmlns="http://www.w3.org/2000/svg" xmlns:xlink="http://www.w3.org/1999/xlink">
    <title>icon_bracket</title>
    <g id="Dataset-pages" stroke="none" stroke-width="1" fill="none" fill-rule="evenodd">
        <g id="pdc_hospicedata_api" transform="translate(-422, -479)" fill="#0D2499" fill-rule="nonzero">
            <g id="Group-2" transform="translate(406, 463)">
                <g id="icon_bracket" transform="translate(16, 18)">
                    <path d="M13.2258065,16.25 C13.016129,16.25 12.8427419,16.1780599 12.7056452,16.0341797 C12.5685484,15.8902995 12.5,15.7083333 12.5,15.4882812 C12.5,15.2682292 12.5685484,15.086263 12.7056452,14.9423828 C12.8427419,14.7985026 13.016129,14.7265625 13.2258065,14.7265625 L15.4032258,14.7265625 C15.7419355,14.7265625 16.0282258,14.6038411 16.2620968,14.3583984 C16.4959677,14.1129557 16.6129032,13.8125 16.6129032,13.4570312 L16.6129032,10.9179687 C16.6129032,10.2916667 16.7943548,9.73307292 17.1572581,9.2421875 C17.5201613,8.75130208 17.983871,8.41276042 18.5483871,8.2265625 L18.5483871,8.0234375 C17.983871,7.85416667 17.5201613,7.51985677 17.1572581,7.02050781 C16.7943548,6.52115885 16.6129032,5.95833333 16.6129032,5.33203125 L16.6129032,2.79296875 C16.6129032,2.4375 16.4959677,2.13704427 16.2620968,1.89160156 C16.0282258,1.64615885 15.7419355,1.5234375 15.4032258,1.5234375 L13.2258065,1.5234375 C13.016129,1.5234375 12.8427419,1.4514974 12.7056452,1.30761719 C12.5685484,1.16373698 12.5,0.981770833 12.5,0.76171875 C12.5,0.541666667 12.5685484,0.359700521 12.7056452,0.215820312 C12.8427419,0.0719401042 13.016129,0 13.2258065,0 L15.4032258,0 C16.1451613,0 16.7741935,0.270833333 17.2903226,0.8125 C17.8064516,1.35416667 18.0645161,2.01432292 18.0645161,2.79296875 L18.0645161,5.33203125 C18.0645161,5.6875 18.1814516,5.98795573 18.4153226,6.23339844 C18.6491935,6.47884115 18.9354839,6.6015625 19.2741935,6.6015625 C19.483871,6.6015625 19.6572581,6.6735026 19.7943548,6.81738281 C19.9314516,6.96126302 20,7.14322917 20,7.36328125 L20,8.88671875 C20,9.08984375 19.9314516,9.26757812 19.7943548,9.41992187 C19.6572581,9.57226562 19.483871,9.6484375 19.2741935,9.6484375 C18.9354839,9.6484375 18.6491935,9.77115885 18.4153226,10.0166016 C18.1814516,10.2620443 18.0645161,10.5625 18.0645161,10.9179687 L18.0645161,13.4570312 C18.0645161,14.2356771 17.8064516,14.8958333 17.2903226,15.4375 C16.7741935,15.9791667 16.1451613,16.25 15.4032258,16.25 L13.2258065,16.25 Z M4.59677419,16.25 C3.85483871,16.25 3.22580645,15.9791667 2.70967742,15.4375 C2.19354839,14.8958333 1.93548387,14.2356771 1.93548387,13.4570312 L1.93548387,10.9179687 C1.93548387,10.5625 1.81854839,10.2620443 1.58467742,10.0166016 C1.35080645,9.77115885 1.06451613,9.6484375 0.725806452,9.6484375 C0.532258065,9.6484375 0.362903226,9.57226562 0.217741935,9.41992187 C0.0725806452,9.26757812 0,9.08984375 0,8.88671875 L0,7.36328125 C0,7.14322917 0.0725806452,6.96126302 0.217741935,6.81738281 C0.362903226,6.6735026 0.532258065,6.6015625 0.725806452,6.6015625 C1.06451613,6.6015625 1.35080645,6.47884115 1.58467742,6.23339844 C1.81854839,5.98795573 1.93548387,5.6875 1.93548387,5.33203125 L1.93548387,2.79296875 C1.93548387,2.01432292 2.19354839,1.35416667 2.70967742,0.8125 C3.22580645,0.270833333 3.85483871,0 4.59677419,0 L6.77419355,0 C6.98387097,0 7.15725806,0.0719401042 7.29435484,0.215820312 C7.43145161,0.359700521 7.5,0.541666667 7.5,0.76171875 C7.5,0.981770833 7.43145161,1.16373698 7.29435484,1.30761719 C7.15725806,1.4514974 6.98387097,1.5234375 6.77419355,1.5234375 L4.59677419,1.5234375 C4.25806452,1.5234375 3.97177419,1.64615885 3.73790323,1.89160156 C3.50403226,2.13704427 3.38709677,2.4375 3.38709677,2.79296875 L3.38709677,5.33203125 C3.38709677,5.95833333 3.20564516,6.52115885 2.84274194,7.02050781 C2.47983871,7.51985677 2.01612903,7.85416667 1.4516129,8.0234375 L1.4516129,8.2265625 C2.01612903,8.41276042 2.47983871,8.75130208 2.84274194,9.2421875 C3.20564516,9.73307292 3.38709677,10.2916667 3.38709677,10.9179687 L3.38709677,13.4570312 C3.38709677,13.8125 3.50403226,14.1129557 3.73790323,14.3583984 C3.97177419,14.6038411 4.25806452,14.7265625 4.59677419,14.7265625 L6.77419355,14.7265625 C6.98387097,14.7265625 7.15725806,14.7985026 7.29435484,14.9423828 C7.43145161,15.086263 7.5,15.2682292 7.5,15.4882812 C7.5,15.7083333 7.43145161,15.8902995 7.29435484,16.0341797 C7.15725806,16.1780599 6.98387097,16.25 6.77419355,16.25 L4.59677419,16.25 Z" id="Shape"></path>
                </g>
            </g>
        </g>
    </g>
</svg>