<svg viewBox="0 0 512 512" xmlns="http://www.w3.org/2000/svg"><path d="M496,384 C504.836556,384 512,391.163444 512,400 L512,496 C512,504.836556 504.836556,512 496,512 L16,512 C7.163444,512 1.082166e-15,504.836556 0,496 L0,400 C-1.082166e-15,391.163444 7.163444,384 16,384 L496,384 Z M496,192 C504.836556,192 512,199.163444 512,208 L512,304 C512,312.836556 504.836556,320 496,320 L16,320 C7.163444,320 1.082166e-15,312.836556 0,304 L0,208 C-1.082166e-15,199.163444 7.163444,192 16,192 L496,192 Z M496,0 C504.836556,-1.623249e-15 512,7.163444 512,16 L512,112 C512,120.836556 504.836556,128 496,128 L16,128 C7.163444,128 1.082166e-15,120.836556 0,112 L0,16 C-1.082166e-15,7.163444 7.163444,1.623249e-15 16,0 L496,0 Z" /></svg>