<svg viewBox="0 0 512 512" xmlns="http://www.w3.org/2000/svg"><path d="M496,448 C504.836556,448 512,455.163444 512,464 L512,496 C512,504.836556 504.836556,512 496,512 L16,512 C7.163444,512 1.082166e-15,504.836556 0,496 L0,464 C-1.082166e-15,455.163444 7.163444,448 16,448 L496,448 Z M496,336 C504.836556,336 512,343.163444 512,352 L512,384 C512,392.836556 504.836556,400 496,400 L16,400 C7.163444,400 1.082166e-15,392.836556 0,384 L0,352 C-1.082166e-15,343.163444 7.163444,336 16,336 L496,336 Z M496,224 C504.836556,224 512,231.163444 512,240 L512,272 C512,280.836556 504.836556,288 496,288 L16,288 C7.163444,288 1.082166e-15,280.836556 0,272 L0,240 C-1.082166e-15,231.163444 7.163444,224 16,224 L496,224 Z M496,112 C504.836556,112 512,119.163444 512,128 L512,160 C512,168.836556 504.836556,176 496,176 L16,176 C7.163444,176 1.082166e-15,168.836556 0,160 L0,128 C-1.082166e-15,119.163444 7.163444,112 16,112 L496,112 Z M496,0 C504.836556,-1.623249e-15 512,7.163444 512,16 L512,48 C512,56.836556 504.836556,64 496,64 L16,64 C7.163444,64 1.082166e-15,56.836556 0,48 L0,16 C-1.082166e-15,7.163444 7.163444,1.623249e-15 16,0 L496,0 Z" /></svg>