<svg viewBox="0 0 512 512" xmlns="http://www.w3.org/2000/svg"><path d="M496,416 C504.836556,416 512,423.163444 512,432 L512,496 C512,504.836556 504.836556,512 496,512 L16,512 C7.163444,512 1.082166e-15,504.836556 0,496 L0,432 C-1.082166e-15,423.163444 7.163444,416 16,416 L496,416 Z M496,277 C504.836556,277 512,284.163444 512,293 L512,357 C512,365.836556 504.836556,373 496,373 L16,373 C7.163444,373 1.082166e-15,365.836556 0,357 L0,293 C-1.082166e-15,284.163444 7.163444,277 16,277 L496,277 Z M496,139 C504.836556,139 512,146.163444 512,155 L512,219 C512,227.836556 504.836556,235 496,235 L16,235 C7.163444,235 1.082166e-15,227.836556 0,219 L0,155 C-1.082166e-15,146.163444 7.163444,139 16,139 L496,139 Z M496,0 C504.836556,-1.623249e-15 512,7.163444 512,16 L512,80 C512,88.836556 504.836556,96 496,96 L16,96 C7.163444,96 1.082166e-15,88.836556 0,80 L0,16 C-1.082166e-15,7.163444 7.163444,1.623249e-15 16,0 L496,0 Z" /></svg>

