<?xml version="1.0" encoding="UTF-8"?>
<svg width="20px" height="20px" viewBox="0 0 20 20" version="1.1" xmlns="http://www.w3.org/2000/svg" xmlns:xlink="http://www.w3.org/1999/xlink">
    <title>icon_tag</title>
    <g id="Dataset-pages" stroke="none" stroke-width="1" fill="none" fill-rule="evenodd">
        <g id="pdc_hospicedata_api" transform="translate(-269, -480)" fill="#0D2499" fill-rule="nonzero">
            <g id="tab_overview" transform="translate(253, 463)">
                <g id="icon_tag" transform="translate(16, 17)">
                    <g id="sell_FILL0_wght400_GRAD0_opsz48-(1)">
                        <path d="M11.9451372,19.5505618 C11.6458853,19.8501873 11.2842893,20 10.8603491,20 C10.436409,20 10.074813,19.8501873 9.7755611,19.5505618 L0.42394015,10.1872659 C0.257689111,10.0208073 0.145469659,9.8460258 0.0872817955,9.66292135 C0.0290939318,9.4798169 0,9.28838951 0,9.0886392 L0,1.49812734 C0,1.065335 0.141313383,0.707449022 0.42394015,0.424469413 C0.706566916,0.141489804 1.06400665,0 1.49625935,0 L9.07730673,0 C9.27680798,0 9.47630923,0.0291302538 9.67581047,0.0873907615 C9.87531172,0.145651269 10.0581879,0.25801082 10.2244389,0.424469413 L19.5261845,9.73782772 C19.8420615,10.054099 20,10.4244694 20,10.8489388 C20,11.2734082 19.8420615,11.6437786 19.5261845,11.9600499 L11.9451372,19.5505618 Z M10.9494135,18.75 L18.75,10.9494135 L9.05058651,1.25 L1.25,1.25 L1.25,9.05058651 L10.9494135,18.75 Z M3.75,5 C4.08653846,5 4.37900641,4.87580128 4.62740385,4.62740385 C4.87580128,4.37900641 5,4.08653846 5,3.75 C5,3.41346154 4.87580128,3.12099359 4.62740385,2.87259615 C4.37900641,2.62419872 4.08653846,2.5 3.75,2.5 C3.41346154,2.5 3.12099359,2.62419872 2.87259615,2.87259615 C2.62419872,3.12099359 2.5,3.41346154 2.5,3.75 C2.5,4.08653846 2.62419872,4.37900641 2.87259615,4.62740385 C3.12099359,4.87580128 3.41346154,5 3.75,5 L3.75,5 Z" id="Shape"></path>
                    </g>
                    <g id="code_FILL0_wght400_GRAD0_opsz48" transform="translate(9.7638, 10.0355) rotate(45) translate(-9.7638, -10.0355)translate(4.3514, 6.9087)">
                        <path d="M7.81022394,6.13352698 C7.72368547,6.21548947 7.62272394,6.25419399 7.50733932,6.24964052 C7.3919547,6.24508704 7.29099317,6.20182906 7.2044547,6.11986656 C7.11791624,6.03790406 7.07464701,5.94000441 7.07464701,5.82616761 C7.07464701,5.7123308 7.11791624,5.61443115 7.2044547,5.53246865 L9.75733932,3.11457495 L7.21887778,0.710341654 C7.13233932,0.628379156 7.09147394,0.530479505 7.09628163,0.416642701 C7.10108932,0.302805897 7.1467624,0.204906246 7.23330086,0.122943748 C7.31983932,0.0409812493 7.4232047,3.52272687e-13 7.54339701,3.52272687e-13 C7.66358932,3.52272687e-13 7.7669547,0.0409812493 7.85349317,0.122943748 L10.6948393,2.8277062 C10.7813778,2.9096687 10.824647,3.00529161 10.824647,3.11457495 C10.824647,3.22385828 10.7813778,3.31948119 10.6948393,3.40144369 L7.81022394,6.13352698 Z M2.97413793,6.13049386 L0.129310345,3.43629255 C0.0431034483,3.35423566 -5.55001287e-13,3.25850261 -5.55001287e-13,3.14909342 C-5.55001287e-13,3.03968423 0.0431034483,2.94395119 0.129310345,2.8618943 L3.00287356,0.12666454 C3.08908046,0.0446076469 3.19204981,0.00357920055 3.31178161,0.00357920055 C3.43151341,0.00357920055 3.53448276,0.0446076469 3.62068966,0.12666454 C3.70689655,0.208721432 3.75,0.306733832 3.75,0.420701739 C3.75,0.534669645 3.70689655,0.632682045 3.62068966,0.714738938 L1.06321839,3.14909342 L3.59195402,5.55609561 C3.67816092,5.6381525 3.72126437,5.73388555 3.72126437,5.84329474 C3.72126437,5.95270393 3.67816092,6.04843697 3.59195402,6.13049386 C3.50574713,6.21255075 3.40277778,6.2535792 3.28304598,6.2535792 C3.16331418,6.2535792 3.06034483,6.21255075 2.97413793,6.13049386 L2.97413793,6.13049386 Z" id="Shape"></path>
                    </g>
                </g>
            </g>
        </g>
    </g>
</svg>